<svg width="21" height="40" viewBox="0 0 21 40" fill="none" xmlns="http://www.w3.org/2000/svg">
<g clip-path="url(#clip0_2040_36)">
<path d="M14.3064 13.18C16.3894 13.18 18.0781 11.4774 18.0781 9.37716C18.0781 7.27693 16.3894 5.57434 14.3064 5.57434C12.2234 5.57434 10.5348 7.27693 10.5348 9.37716C10.5348 11.4774 12.2234 13.18 14.3064 13.18Z" fill="#F8A434" stroke="#F8A434" stroke-miterlimit="10"/>
<path d="M13.9111 15.3613H11.8431C10.4504 15.3613 9.35311 13.8295 9.35311 11.9997V3.57437C9.35311 1.61698 8.17144 0 6.73652 0H3.27586C1.62993 0 0.279419 1.82974 0.279419 4.04245V21.3527C0.279419 22.9085 1.53025 24.1696 3.07322 24.1696H7.41178C8.46066 24.1696 9.31093 23.3123 9.31093 22.2548C9.31093 21.5739 9.73296 21.0208 10.1972 21.0208C10.6614 21.0208 11.0835 21.4463 11.1679 22.0846C11.7587 28.0419 15.557 32.6375 20.115 32.6375V23.7867C20.1572 19.1485 17.3718 15.3613 13.9111 15.3613Z" fill="#F8A434"/>
<path d="M4.77861 32.7116C6.86161 32.7116 8.55024 31.0088 8.55024 28.9088C8.55024 26.8084 6.86161 25.1058 4.77861 25.1058C2.69558 25.1058 1.00696 26.8084 1.00696 28.9088C1.00696 31.0088 2.69558 32.7116 4.77861 32.7116Z" fill="#F8A434" stroke="#F8A434" stroke-miterlimit="10"/>
<path d="M1.19795 37.951L1.13984 36.7837L2.31994 35.4722H3.46875L2.14561 36.9415L1.56003 37.5454L1.19795 37.951ZM0.254761 38.6271V35.4722H1.29182V38.6271H0.254761ZM2.311 38.6271L1.39016 37.4012L2.07409 36.671L3.53134 38.6271H2.311ZM5.12663 38.6992C4.64685 38.6992 4.27284 38.5685 4.00463 38.3071C3.73643 38.0457 3.60233 37.6789 3.60233 37.2074V35.4722H4.65727V37.1758C4.65727 37.4161 4.70049 37.5874 4.7869 37.6896C4.87334 37.7888 4.98956 37.8384 5.13557 37.8384C5.28459 37.8384 5.40081 37.7888 5.48423 37.6896C5.57067 37.5874 5.61387 37.4161 5.61387 37.1758V35.4722H6.65093V37.2074C6.65093 37.6789 6.51682 38.0457 6.24862 38.3071C5.98041 38.5685 5.60643 38.6992 5.12663 38.6992ZM7.92571 38.6271L6.92441 35.4722H8.01064L8.81973 38.1358H8.27438L9.13263 35.4722H10.1026L10.9028 38.1358H10.3798L11.2246 35.4722H12.2259L11.2246 38.6271H10.0937L9.44107 36.4457H9.74504L9.05664 38.6271H7.92571ZM12.4602 38.6271V35.4722H13.5151V38.6271H12.4602ZM14.8276 38.6271V37.2434L15.069 37.8789L13.6475 35.4722H14.7606L15.7216 37.1172H15.0735L16.0435 35.4722H17.0627L15.6501 37.8789L15.8826 37.2434V38.6271H14.8276ZM16.656 38.6271L18.0239 35.4722H19.061L20.4288 38.6271H19.3381L18.3279 35.977H18.7391L17.7289 38.6271H16.656ZM17.4696 38.0772L17.7378 37.311H19.1772L19.4454 38.0772H17.4696Z" fill="#F8A434"/>
</g>
<defs>
<clipPath id="clip0_2040_36">
<rect width="20.6742" height="40" fill="white"/>
</clipPath>
</defs>
</svg>
