<svg width="349" height="110" viewBox="0 0 349 110" fill="none" xmlns="http://www.w3.org/2000/svg">
<g filter="url(#filter0_d_102_3348)">
<path fill-rule="evenodd" clip-rule="evenodd" d="M0 9C0 4.58172 3.58172 1 8 1H334C338.418 1 342 4.58172 342 9V36.5815C341.669 36.5611 341.336 36.5507 341 36.5507C332.163 36.5507 325 43.7142 325 52.5507C325 61.3873 332.163 68.5507 341 68.5507C341.336 68.5507 341.669 68.5404 342 68.52V97C342 101.418 338.418 105 334 105H8.00001C3.58173 105 0 101.418 0 97V68.5507C8.83656 68.5507 16 61.3873 16 52.5507C16 43.7142 8.83656 36.5507 0 36.5507V9Z" fill="#F0F0F0"/>
</g>
<defs>
<filter id="filter0_d_102_3348" x="0" y="0" width="349" height="110" filterUnits="userSpaceOnUse" color-interpolation-filters="sRGB">
<feFlood flood-opacity="0" result="BackgroundImageFix"/>
<feColorMatrix in="SourceAlpha" type="matrix" values="0 0 0 0 0 0 0 0 0 0 0 0 0 0 0 0 0 0 127 0" result="hardAlpha"/>
<feOffset dx="4" dy="2"/>
<feGaussianBlur stdDeviation="1.5"/>
<feComposite in2="hardAlpha" operator="out"/>
<feColorMatrix type="matrix" values="0 0 0 0 0 0 0 0 0 0 0 0 0 0 0 0 0 0 0.25 0"/>
<feBlend mode="normal" in2="BackgroundImageFix" result="effect1_dropShadow_102_3348"/>
<feBlend mode="normal" in="SourceGraphic" in2="effect1_dropShadow_102_3348" result="shape"/>
</filter>
</defs>
</svg>
