<svg width="23" height="40" viewBox="0 0 23 40" fill="none" xmlns="http://www.w3.org/2000/svg">
<path fill-rule="evenodd" clip-rule="evenodd" d="M5.87726 20.2618C8.14497 20.2618 9.98365 18.4379 9.98365 16.1877V14.6339C10.5878 15.1846 11.3097 15.6554 12.1469 15.9372C12.1398 16.0344 12.1364 16.1324 12.1364 16.231V23.709C12.1364 28.5195 16.0667 32.4187 20.9153 32.4187C21.1578 32.4187 21.3544 32.2239 21.3544 31.9833V15.9289C21.3544 13.8459 19.6522 12.1572 17.5523 12.1572H16.2428C15.0778 12.1572 14.0264 12.6382 13.279 13.4111C12.5879 13.2531 11.9858 12.8241 11.4465 12.2012C10.7357 11.3806 10.243 10.3293 9.98365 9.51705V8.70972C9.98365 3.89957 6.05305 0 1.20448 0C0.962004 0 0.765625 0.194963 0.765625 0.435471V16.4898C0.765625 18.5731 2.46786 20.2618 4.56747 20.2618H5.87726ZM21.3544 4.40818C21.3544 6.84307 19.3649 8.81667 16.9109 8.81667C14.457 8.81667 12.4674 6.84307 12.4674 4.40818C12.4674 1.97366 14.457 0 16.9109 0C19.3649 0 21.3544 1.97366 21.3544 4.40818ZM0.765625 28.0106C0.765625 25.576 2.7549 23.6024 5.20884 23.6024C7.66309 23.6024 9.65236 25.576 9.65236 28.0106C9.65236 30.4451 7.66309 32.4187 5.20884 32.4187C2.7549 32.4187 0.765625 30.4451 0.765625 28.0106Z" fill="#F8A434"/>
<path d="M1.04826 39.1819L0.983724 37.9053L2.29536 36.4714H3.57197L2.10144 38.078L1.45085 38.7385L1.04826 39.1819ZM0 39.9213V36.4714H1.15275V39.9213H0ZM2.28522 39.9213L1.26185 38.5805L2.02216 37.7821L3.64142 39.9213H2.28522ZM5.41434 40C4.88114 40 4.46564 39.8571 4.16755 39.5713C3.86945 39.2855 3.7204 38.8844 3.7204 38.3688V36.4714H4.89282V38.3343C4.89282 38.5971 4.94076 38.7843 5.03695 38.8961C5.13284 39.0046 5.26222 39.0587 5.42448 39.0587C5.58982 39.0587 5.7192 39.0046 5.81201 38.8961C5.90789 38.7843 5.95583 38.5971 5.95583 38.3343V36.4714H7.10859V38.3688C7.10859 38.8844 6.95954 39.2855 6.66144 39.5713C6.36334 39.8571 5.94754 40 5.41434 40ZM8.52533 39.9213L7.41253 36.4714H8.61967L9.51889 39.3841H8.91286L9.86647 36.4714H10.9445L11.8339 39.3841H11.2525L12.1913 36.4714H13.3041L12.1913 39.9213H10.9347L10.2094 37.5359H10.5472L9.78196 39.9213H8.52533ZM13.5647 39.9213V36.4714H14.7369V39.9213H13.5647ZM16.1957 39.9213V38.4081L16.464 39.1029L14.8841 36.4714H16.121L17.1893 38.2701H16.4689L17.547 36.4714H18.6794L17.1097 39.1029L17.3681 38.4081V39.9213H16.1957ZM18.2277 39.9213L19.7477 36.4714H20.9004L22.4204 39.9213H21.2084L20.0857 37.0233H20.5427L19.4201 39.9213H18.2277ZM19.1318 39.3199L19.4299 38.4822H21.0295L21.3276 39.3199H19.1318Z" fill="#F8A434"/>
</svg>
